<svg id="Illu" xmlns="http://www.w3.org/2000/svg" viewBox="0 0 269.47 272.76">
    <defs>
        <style>
            .cls-1,
            .cls-2,
            .cls-23,
            .cls-4,
            .cls-6,
            .cls-8 {
                fill: none;
            }

            .cls-1 {
                stroke: #2c8ecc;
            }

            .cls-1,
            .cls-14,
            .cls-15,
            .cls-16,
            .cls-17,
            .cls-2,
            .cls-22,
            .cls-23,
            .cls-4,
            .cls-6,
            .cls-8,
            .cls-9 {
                stroke-linecap: round;
            }

            .cls-1,
            .cls-10,
            .cls-11,
            .cls-13,
            .cls-15,
            .cls-16,
            .cls-17,
            .cls-19,
            .cls-2,
            .cls-21,
            .cls-22,
            .cls-23,
            .cls-4,
            .cls-8,
            .cls-9 {
                stroke-linejoin: round;
            }

            .cls-1,
            .cls-23 {
                stroke-width: 24.16px;
            }

            .cls-2 {
                stroke: #f6a018;
            }

            .cls-2,
            .cls-4 {
                stroke-width: 15px;
            }

            .cls-3 {
                fill: #462681;
            }

            .cls-4,
            .cls-8 {
                stroke: #fbbb0d;
            }

            .cls-5 {
                fill: #5d3d90;
            }

            .cls-6 {
                stroke: #5d3d90;
                stroke-width: 36.17px;
            }

            .cls-14,
            .cls-20,
            .cls-6 {
                stroke-miterlimit: 10;
            }

            .cls-7 {
                fill: #fff;
            }

            .cls-8 {
                stroke-width: 21.12px;
            }

            .cls-9 {
                fill: #883c51;
                stroke: #883c51;
                stroke-width: 2.36px;
            }

            .cls-10 {
                fill: #94c123;
                stroke: #94c123;
            }

            .cls-10,
            .cls-11,
            .cls-19,
            .cls-20 {
                stroke-width: 1.21px;
            }

            .cls-11 {
                fill: #2da6c5;
                stroke: #2da6c5;
            }

            .cls-12,
            .cls-13 {
                fill: #a85069;
            }

            .cls-13 {
                stroke: #a85069;
            }

            .cls-13,
            .cls-21 {
                stroke-width: 2.42px;
            }

            .cls-14 {
                fill: #953a54;
                stroke: #953a54;
                stroke-width: 2.57px;
            }

            .cls-15,
            .cls-18,
            .cls-19,
            .cls-22 {
                fill: #dc8028;
            }

            .cls-15,
            .cls-19,
            .cls-22 {
                stroke: #dc8028;
            }

            .cls-15 {
                stroke-width: 2.32px;
            }

            .cls-16 {
                fill: #f9c164;
                stroke: #f9c164;
            }

            .cls-16,
            .cls-17 {
                stroke-width: 2.61px;
            }

            .cls-17 {
                fill: #ffec98;
                stroke: #ffec98;
            }

            .cls-20 {
                fill: #6db52d;
                stroke: #6db52d;
            }

            .cls-21 {
                fill: #f59a42;
                stroke: #f59a42;
            }

            .cls-22 {
                stroke-width: 2.36px;
            }

            .cls-23 {
                stroke: #1db7de;
            }
        </style>
    </defs>
    <!-- WING LEFT -->
    <path id="leftWing" class="cls-1" d="M58.91,129.3s13.74,23.6,49.35,43.53c0,0-34.81.18-48.84-20.44">
        <animate attributeName="d" dur="5s" repeatCount="indefinite" values="
        M58.91,129.3s13.74,23.6,49.35,43.53c0,0-34.81.18-48.84-20.44;
        M58.91,109.3s13.74,23.6,49.35,43.53c0,0-34.81.18-48.84-20.44;
        M58.91,129.3s13.74,23.6,49.35,43.53c0,0-34.81.18-48.84-20.44" />
    </path>
    <path class="cls-2" d="M112.61,212.62s-12.68,27.78-7.24,48.12l-21.58-4.66" />
    <circle class="cls-3" cx="117.3" cy="203.02" r="21.13" />
    <path class="cls-4" d="M158.75,214.56s6.53,29.83-3.08,48.56h22.08" />
    <circle class="cls-5" cx="156.98" cy="209.61" r="21.13" />
    <circle class="cls-5" cx="146.43" cy="172.64" r="45.62" />
    <path class="cls-5"
        d="M152,166.5h47.64a29.68,29.68,0,0,1,29.68,29.68v6.94a0,0,0,0,1,0,0H152a0,0,0,0,1,0,0V166.5A0,0,0,0,1,152,166.5Z"
        transform="translate(-45.62 63.65) rotate(-16.96)" />
    <path class="cls-6" d="M117.3,142.38s-17.06-24.26-.45-64.84" />
    <path class="cls-5"
        d="M100.35,29.59h55.23a22.09,22.09,0,0,1,22.09,22.09v0a0,0,0,0,1,0,0H100.35a0,0,0,0,1,0,0V29.59A0,0,0,0,1,100.35,29.59Z"
        transform="translate(-5.81 42.15) rotate(-16.89)" />
    <path class="cls-5"
        d="M88,16h55.23A22.09,22.09,0,0,1,165.31,38.1v0a0,0,0,0,1,0,0H88a0,0,0,0,1,0,0V16a0,0,0,0,1,0,0Z"
        transform="translate(9.35 81.95) rotate(-37.14)" />
    <circle class="cls-5" cx="112.51" cy="71.07" r="37.53" />
    <circle class="cls-7" cx="123.89" cy="67.79" r="14.31" />
    <ellipse class="cls-5" cx="133.54" cy="85.18" rx="14.31" ry="10.71"
        transform="translate(-24.26 71.44) rotate(-27.56)" />
    <path class="cls-8" d="M71,56.87c10.76,10.9,25.26,13,25.26,13L82.87,78.7" />
    <path class="cls-9"
        d="M101.06,138.76h49.68a0,0,0,0,1,0,0v58.31a0,0,0,0,1,0,0H101.06a2.42,2.42,0,0,1-2.42-2.42V141.18A2.42,2.42,0,0,1,101.06,138.76Z"
        transform="translate(321.29 239.27) rotate(146.54)" />
    <path class="cls-10"
        d="M151.08,154.82h3.77a0,0,0,0,1,0,0v15.77a0,0,0,0,1,0,0h-3.77a2.18,2.18,0,0,1-2.18-2.18V157A2.18,2.18,0,0,1,151.08,154.82Z"
        transform="translate(368.28 214.72) rotate(146.54)" />
    <path class="cls-11"
        d="M145.18,146.89H149a0,0,0,0,1,0,0v10.79a0,0,0,0,1,0,0h-3.86a2.08,2.08,0,0,1-2.08-2.08V149A2.08,2.08,0,0,1,145.18,146.89Z"
        transform="translate(351.9 198.81) rotate(146.54)" />
    <path class="cls-12"
        d="M138.12,133.45H142a0,0,0,0,1,0,0v17.2a0,0,0,0,1,0,0h-3.86a2.08,2.08,0,0,1-2.08-2.08v-13A2.08,2.08,0,0,1,138.12,133.45Z"
        transform="translate(333.29 183.93) rotate(146.54)" />
    <path class="cls-13"
        d="M101.17,142.18h47a3.1,3.1,0,0,1,3.1,3.1v55.21a0,0,0,0,1,0,0h-50a2.42,2.42,0,0,1-2.42-2.42V144.61A2.42,2.42,0,0,1,101.17,142.18Z"
        transform="translate(323.72 245.38) rotate(146.54)" />
    <rect class="cls-14" x="100.35" y="151.97" width="31.66" height="12.09" rx="1.11"
        transform="translate(300.22 225.79) rotate(146.54)" />
    <polygon class="cls-15" points="84.71 178.69 117.64 142.05 160.6 181.48 127.67 218.12 84.71 178.69" />
    <rect class="cls-16" x="93.9" y="149.48" width="46.33" height="54.19"
        transform="translate(-92.18 143.43) rotate(-47.46)" />
    <rect class="cls-17" x="98.87" y="151.12" width="46.33" height="54.19"
        transform="translate(-83.95 113.24) rotate(-38.09)" />
    <path class="cls-18"
        d="M129.64,141.61h3.86a0,0,0,0,1,0,0v17.2a0,0,0,0,1,0,0h-3.86a2.08,2.08,0,0,1-2.08-2.08v-13A2.08,2.08,0,0,1,129.64,141.61Z"
        transform="translate(329.46 155.61) rotate(132.54)" />
    <path class="cls-19"
        d="M149.65,162.45h3.06a0,0,0,0,1,0,0v10.09a0,0,0,0,1,0,0h-3.06A2.55,2.55,0,0,1,147.1,170v-5A2.55,2.55,0,0,1,149.65,162.45Z"
        transform="translate(374.67 170.29) rotate(132.54)" />
    <path class="cls-11"
        d="M142.25,155.82h3.86a0,0,0,0,1,0,0v10.79a0,0,0,0,1,0,0h-3.86a2.08,2.08,0,0,1-2.08-2.08v-6.63A2.08,2.08,0,0,1,142.25,155.82Z"
        transform="translate(358.7 164.77) rotate(132.54)" />
    <path class="cls-10"
        d="M137.91,152.68h3.86a0,0,0,0,1,0,0v8.65a0,0,0,0,1,0,0h-3.86a2.08,2.08,0,0,1-2.08-2.08v-4.49A2.08,2.08,0,0,1,137.91,152.68Z"
        transform="translate(348.32 160.9) rotate(132.54)" />
    <path class="cls-20"
        d="M157.55,172.28h3.86a0,0,0,0,1,0,0v7.1a0,0,0,0,1,0,0h-3.86a2.08,2.08,0,0,1-2.08-2.08v-2.94A2.08,2.08,0,0,1,157.55,172.28Z"
        transform="translate(395.12 177.98) rotate(132.54)" />
    <path class="cls-21"
        d="M103.24,155.25h49a1,1,0,0,1,1,1v57.3a0,0,0,0,1,0,0h-50a2.42,2.42,0,0,1-2.42-2.42V157.67a2.42,2.42,0,0,1,2.42-2.42Z"
        transform="translate(348.82 215.47) rotate(132.54)" />
    <rect class="cls-22" x="99.45" y="167.56" width="31.66" height="12.09" rx="1.11"
        transform="translate(321.13 206.04) rotate(132.54)" />
    <!-- WING RIGHT -->
    <!-- <path class="cls-23" d="M133.71,193.48c32.82,7.62,40.29-24,40.29-24s-13.07,13-25.68,9.06" /> -->
    <path class="cls-23" d="M133.71,193.48c32.82,7.62,40.29-24,40.29-24s-13.07,13-25.68,9.06">
        <animate attributeName="d" dur="4s" repeatCount="indefinite" values="M133.71,193.48c32.82,7.62,40.29-24,40.29-24s-13.07,13-25.68,9.06;
            M139.71,193.48c32.82,7.62,40.29-24,40.29-24s-13.07,13-20.68,9.06;
            M133.71,193.48c32.82,7.62,40.29-24,40.29-24s-13.07,18-25.68,9.06">
        </animate>
    </path>
</svg>
