<?xml version="1.0" encoding="utf-8"?>
<!-- Generator: Adobe Illustrator 25.4.1, SVG Export Plug-In . SVG Version: 6.00 Build 0)  -->
<svg version="1.1" id="Layer_1" xmlns="http://www.w3.org/2000/svg" xmlns:xlink="http://www.w3.org/1999/xlink" x="0px" y="0px"
	 viewBox="0 0 162 34.3" style="enable-background:new 0 0 162 34.3;" xml:space="preserve">
<style type="text/css">
	.st0{fill:#FFFFFF;}
	.st1{fill:url(#SVGID_1_);}
	.st2{fill:none;}
</style>
<path class="st0" d="M45.3,18.5h-4.8l-1.1,3.4h-2l4.5-12.5H44l4.5,12.5h-2L45.3,18.5z M41,16.9h3.8L43,11.5l0,0L41,16.9z M58.4,17.3
	c0,2.8-1.5,4.6-3.8,4.6c-1.2,0.1-2.3-0.6-2.8-1.6l0,0v4.5h-1.9V12.8h1.8v1.5l0,0c0.6-1,1.7-1.6,2.9-1.6
	C56.9,12.7,58.4,14.5,58.4,17.3L58.4,17.3z M56.5,17.3c0-1.8-1-3-2.4-3s-2.4,1.2-2.4,3s1,3.1,2.4,3.1S56.5,19.1,56.5,17.3L56.5,17.3
	z M68.5,17.3c0,2.8-1.5,4.6-3.8,4.6c-1.2,0.1-2.3-0.6-2.9-1.6l0,0v4.5h-1.9V12.8h1.8v1.5l0,0c0.6-1,1.7-1.6,2.9-1.6
	C66.9,12.7,68.5,14.5,68.5,17.3L68.5,17.3z M66.5,17.3c0-1.8-1-3-2.4-3c-1.4,0-2.4,1.2-2.4,3s1,3.1,2.4,3.1
	C65.5,20.4,66.6,19.1,66.5,17.3L66.5,17.3z M70,9.4h1.9v12.5H70V9.4z M82,19.2c-0.2,1.6-1.9,2.8-3.9,2.8c-2.6,0-4.3-1.8-4.3-4.6
	s1.6-4.7,4.2-4.7s4.1,1.7,4.1,4.5v0.6h-6.4v0.1c-0.1,1.3,0.8,2.5,2.1,2.6c0.1,0,0.2,0,0.3,0c0.9,0.1,1.8-0.4,2.1-1.3H82z M75.7,16.5
	h4.6c0.1-1.2-0.8-2.3-2-2.3c-0.1,0-0.2,0-0.2,0C76.7,14.1,75.7,15.2,75.7,16.5C75.7,16.4,75.7,16.4,75.7,16.5L75.7,16.5z M92.7,9.4
	c2.2-0.1,4,1.5,4.1,3.7c0,0.1,0,0.3,0,0.4c0.1,2.2-1.7,4-3.9,4.1c-0.1,0-0.2,0-0.3,0H90v4.2h-1.9V9.4L92.7,9.4z M90,16h2.2
	c1.4,0.1,2.5-1,2.6-2.3c0.1-1.4-1-2.5-2.3-2.6c-0.1,0-0.2,0-0.3,0H90V16z M97.7,17.3c0-2.9,1.7-4.6,4.3-4.6s4.3,1.8,4.3,4.6
	S104.7,22,102,22S97.7,20.2,97.7,17.3L97.7,17.3z M104.4,17.3c0-2-0.9-3.1-2.4-3.1s-2.4,1.2-2.4,3.1s0.9,3.1,2.4,3.1
	S104.4,19.3,104.4,17.3L104.4,17.3z M107.6,17.3c0-2.8,1.6-4.6,3.8-4.6c1.2-0.1,2.3,0.6,2.9,1.6l0,0V9.4h1.9v12.5h-1.8v-1.6l0,0
	c-0.6,1.1-1.7,1.7-2.9,1.6C109.1,22,107.6,20.1,107.6,17.3L107.6,17.3z M109.5,17.3c0,1.9,0.9,3.1,2.4,3.1s2.4-1.2,2.4-3.1
	s-1-3-2.4-3S109.5,15.5,109.5,17.3L109.5,17.3z M124.3,15.9c-0.2-1-1.1-1.8-2.1-1.7c-1.4,0-2.4,1.2-2.4,3.1s1,3.1,2.4,3.1
	c1,0.1,1.9-0.6,2.1-1.6h1.8c-0.2,2-2,3.4-3.9,3.2c-2.6,0-4.3-1.8-4.3-4.7s1.7-4.6,4.3-4.6c2-0.2,3.7,1.3,3.9,3.2L124.3,15.9z
	 M127.3,19.3c0-1.6,1.2-2.5,3.5-2.7l2.4-0.1v-0.7c0-1-0.7-1.6-1.9-1.6c-0.8-0.1-1.6,0.5-1.8,1.3h-1.7c0.1-1.6,1.6-2.8,3.6-2.8
	c2.2,0,3.7,1.2,3.7,3v6.2h-1.8v-1.5l0,0c-0.6,1-1.7,1.7-2.9,1.6c-1.5,0.1-2.9-1-3-2.5C127.4,19.4,127.3,19.4,127.3,19.3L127.3,19.3z
	 M133.1,18.5v-0.7l-2.2,0.1c-1.2,0.1-1.9,0.5-1.9,1.3s0.7,1.3,1.7,1.3C132,20.6,133,19.7,133.1,18.5
	C133.1,18.5,133.1,18.5,133.1,18.5L133.1,18.5z M140.5,12.7c2,0,3.5,1.1,3.5,2.7h-1.8c-0.1-0.8-0.8-1.3-1.8-1.3s-1.7,0.5-1.7,1.2
	c0,0.5,0.4,0.9,1.4,1.1l1.5,0.4c1.8,0.4,2.5,1.1,2.5,2.4c0,1.6-1.6,2.8-3.8,2.8s-3.6-1.1-3.7-2.8h1.9c0.1,0.9,0.8,1.3,2,1.3
	s1.8-0.5,1.8-1.2s-0.4-0.9-1.3-1.1l-1.6-0.4c-1.6-0.4-2.5-1.2-2.5-2.5C136.9,13.8,138.4,12.7,140.5,12.7L140.5,12.7z M148.3,10.7
	v2.1h1.7v1.5h-1.7v5c0,0.8,0.4,1.1,1.1,1.1c0.2,0,0.4,0,0.6-0.1v1.5c-0.3,0.1-0.7,0.1-1,0.1c-1.8,0-2.6-0.7-2.6-2.5v-5.2h-1.3v-1.5
	h1.3v-2.1L148.3,10.7z M155,12.7c2,0,3.4,1.1,3.5,2.7h-1.8c-0.1-0.8-0.8-1.3-1.8-1.3s-1.7,0.5-1.7,1.2c0,0.5,0.4,0.9,1.4,1.1
	l1.5,0.4c1.8,0.4,2.5,1.1,2.5,2.4c0,1.6-1.6,2.8-3.8,2.8s-3.6-1.1-3.7-2.8h1.9c0.1,0.9,0.8,1.3,2,1.3s1.8-0.5,1.8-1.2
	s-0.3-0.9-1.3-1.1l-1.6-0.4c-1.6-0.4-2.5-1.2-2.5-2.5C151.5,13.8,152.9,12.7,155,12.7L155,12.7z"/>
<linearGradient id="SVGID_1_" gradientUnits="userSpaceOnUse" x1="-1003.8299" y1="693.4683" x2="-1003.5199" y2="693.4683" gradientTransform="matrix(5.670115e-15 92.6 92.6 -5.670115e-15 -64197.3398 92957.6719)">
	<stop  offset="0" style="stop-color:#BA6AAB"/>
	<stop  offset="1" style="stop-color:#78489C"/>
</linearGradient>
<path class="st1" d="M31.8,27.8c-0.7,1.7-2.2,3-3.9,3.5c-1.1,0.3-2.3,0.4-3.5,0.4H11.3c-1.2,0-2.4-0.1-3.5-0.4
	c-1.8-0.5-3.2-1.8-3.9-3.5c-0.4-1.3-0.6-2.7-0.6-4.1V10.6C3.2,9.2,3.4,7.8,3.8,6.5C4.5,4.8,6,3.5,7.7,3c1.1-0.3,2.3-0.4,3.5-0.4
	h13.1c1.2,0,2.4,0.1,3.5,0.4c1.8,0.5,3.2,1.8,3.9,3.5c0.4,1.3,0.6,2.7,0.6,4.1v13.1C32.4,25.1,32.3,26.5,31.8,27.8z"/>
<path class="st2" d="M31.8,27.8c-0.7,1.7-2.2,3-3.9,3.5c-1.1,0.3-2.3,0.4-3.5,0.4H11.3c-1.2,0-2.4-0.1-3.5-0.4
	c-1.8-0.5-3.2-1.8-3.9-3.5c-0.4-1.3-0.6-2.7-0.6-4.1V10.6C3.2,9.2,3.4,7.8,3.8,6.5C4.5,4.8,6,3.5,7.7,3c1.1-0.3,2.3-0.4,3.5-0.4
	h13.1c1.2,0,2.4,0.1,3.5,0.4c1.8,0.5,3.2,1.8,3.9,3.5c0.4,1.3,0.6,2.7,0.6,4.1v13.1C32.4,25.1,32.3,26.5,31.8,27.8z"/>
<path class="st0" d="M19.9,19.3c-0.6-0.5-1.3-0.8-2.1-0.8c-0.8,0-1.5,0.2-2.1,0.8c-0.2,0.2-0.4,0.5-0.4,0.8c-0.1,0.7-0.1,1.5,0,2.2
	c0.1,0.9,0.2,2.1,0.4,3.3c0.1,0.6,0.2,1.1,0.3,1.7c0.5,0.9,1.7,1.3,2.6,0.8c0.3-0.2,0.6-0.4,0.8-0.8c0.2-0.5,0.3-1.1,0.3-1.7
	c0.2-1.2,0.3-2.4,0.4-3.3c0.1-0.7,0.1-1.5,0-2.2C20.2,19.9,20.1,19.6,19.9,19.3z M15.4,15.2c0,1.3,1.1,2.4,2.4,2.4s2.4-1.1,2.4-2.4
	c0-1.3-1.1-2.4-2.4-2.4c0,0,0,0,0,0C16.5,12.8,15.4,13.9,15.4,15.2L15.4,15.2z M17.8,5.8c-5.7,0-10.2,4.6-10.2,10.2
	c0,4.4,2.8,8.2,6.9,9.7c0.1,0,0.2,0,0.2-0.1c0,0,0,0,0-0.1c-0.1-0.4-0.1-0.7-0.2-1c0-0.1-0.1-0.2-0.2-0.3c-4.5-2-6.6-7.2-4.6-11.8
	c2-4.5,7.2-6.6,11.8-4.6c4.5,2,6.6,7.2,4.6,11.8c-0.9,2.1-2.6,3.7-4.6,4.6c-0.1,0-0.2,0.2-0.2,0.3c0,0.3-0.1,0.7-0.2,1
	c0,0.1,0,0.1,0.1,0.2c0,0,0,0,0,0h0.1c5.3-1.9,8.2-7.7,6.3-13C26.1,8.6,22.2,5.8,17.8,5.8L17.8,5.8z M17.6,10.5
	c3.1-0.1,5.7,2.3,5.8,5.3v0.2c0,1.5-0.6,3-1.8,4c-0.1,0.1-0.1,0.2-0.1,0.3c0,0.4,0,0.8,0,1.2c0,0.1,0,0.1,0.1,0.1c0,0,0,0,0,0h0.1
	c3.1-2.1,3.9-6.4,1.8-9.5c-1.3-1.9-3.4-3-5.7-3h-0.3c-3.8,0.1-6.7,3.3-6.6,7.1c0.1,2.2,1.2,4.2,3,5.4c0,0,0.1,0.1,0.2,0c0,0,0,0,0,0
	c0,0,0-0.1,0-0.1c0-0.4,0-0.8,0-1.2c0-0.1-0.1-0.3-0.2-0.3c-1.2-1.1-1.8-2.6-1.8-4.2C12.3,13,14.7,10.6,17.6,10.5L17.6,10.5z"/>
</svg>
