<?xml version="1.0" encoding="utf-8"?>
<!-- Generator: Adobe Illustrator 25.4.1, SVG Export Plug-In . SVG Version: 6.00 Build 0)  -->
<svg version="1.1" id="Layer_1" xmlns="http://www.w3.org/2000/svg" xmlns:xlink="http://www.w3.org/1999/xlink" x="0px" y="0px"
	 viewBox="0 0 505 105" style="enable-background:new 0 0 505 105;" xml:space="preserve">
<style type="text/css">
	.st0{fill:#FAB911;}
	.st1{fill:#2D64AD;}
	.st2{fill:#527BBD;}
	.st3{fill:#E84436;}
	.st4{fill:#34A953;}
	.st5{fill:none;}
	.st6{fill:#FFFFFF;}
</style>
<g>
	<path class="st0" d="M56,69.1V36H44.7v33.1H56z"/>
	<circle class="st1" cx="90.1" cy="55.6" r="5.7"/>
	<circle class="st1" cx="90.1" cy="49.4" r="5.7"/>
	<path class="st1" d="M95.8,55.6H84.4v-6.2h11.4V55.6z"/>
	<circle class="st2" cx="10.5" cy="49.4" r="5.7"/>
	<circle class="st2" cx="10.5" cy="55.6" r="5.7"/>
	<path class="st2" d="M16.2,55.6H4.8v-6.2h11.4V55.6L16.2,55.6z"/>
	<circle class="st3" cx="70.5" cy="37" r="5.7"/>
	<circle class="st3" cx="70.5" cy="30.8" r="5.7"/>
	<path class="st3" d="M76.2,37H64.8v-6.2h11.4V37z"/>
	<circle class="st3" cx="70.5" cy="74.2" r="5.7"/>
	<circle class="st3" cx="70.5" cy="54.1" r="5.7"/>
	<path class="st3" d="M76.2,74.2H64.8V53.9h11.4V74.2z"/>
	<circle class="st4" cx="30.2" cy="68" r="5.7"/>
	<circle class="st4" cx="30.2" cy="74.2" r="5.7"/>
	<path class="st4" d="M35.8,74.2H24.5V68h11.4V74.2z"/>
	<circle class="st0" cx="50.3" cy="86.1" r="5.7"/>
	<circle class="st0" cx="50.3" cy="92.3" r="5.7"/>
	<path class="st0" d="M56,92.3H44.7v-6.2H56V92.3z"/>
	<circle class="st0" cx="50.3" cy="12.7" r="5.7"/>
	<circle class="st0" cx="50.3" cy="18.9" r="5.7"/>
	<path class="st0" d="M56,18.9H44.7v-6.2H56V18.9z"/>
	<circle class="st4" cx="30.2" cy="30.8" r="5.7"/>
	<circle class="st4" cx="30.2" cy="50.9" r="5.7"/>
	<path class="st4" d="M35.8,50.9H24.5V30.8h11.4V50.9z"/>
	<circle class="st0" cx="50.3" cy="69.1" r="5.7"/>
	<circle class="st0" cx="50.3" cy="36" r="5.7"/>
</g>
<g>
	<path class="st5" d="M113.5,22.7h386.7v59.5H113.5V22.7z"/>
	<path class="st6" d="M304.3,67.4h-4.8V29.5h12.9c3.2,0,6,1.1,8.3,3.2c2.4,2.1,3.5,4.8,3.5,8.1c0,3.2-1.2,5.9-3.5,8.1
		c-2.3,2.1-5.2,3.2-8.3,3.2h-8.1L304.3,67.4L304.3,67.4z M304.3,47.4h8.1c2.1,0,3.7-0.7,5-2.1c1.2-1.4,1.8-2.9,1.8-4.5
		s-0.6-3.2-1.9-4.5c-1.2-1.4-2.9-2.1-4.9-2.1h-8.1V47.4z M328.3,44.6c2.5-2.6,5.7-4,9.6-4c3.9,0,7.1,1.3,9.6,3.9
		c2.5,2.6,3.7,5.9,3.7,9.9c0,3.9-1.2,7.2-3.7,9.8c-2.5,2.6-5.7,3.9-9.6,3.9c-3.9,0-7-1.3-9.6-3.9c-2.5-2.6-3.8-5.9-3.8-9.8
		C324.5,50.5,325.7,47.2,328.3,44.6L328.3,44.6L328.3,44.6z M331.9,61.2c3.1,3.3,8.3,3.4,11.6,0.3c0.1-0.1,0.2-0.2,0.3-0.3
		c1.7-1.7,2.5-4,2.5-6.8c0-2.8-0.8-5.1-2.5-6.8c-1.7-1.7-3.6-2.6-6-2.6c-2.3,0-4.3,0.9-6,2.6c-1.7,1.7-2.5,4-2.5,6.8
		C329.4,57.2,330.2,59.5,331.9,61.2L331.9,61.2z M365.8,68.2c-3.3,0-6.2-1.3-8.7-3.9c-2.4-2.7-3.8-6.2-3.6-9.8
		c0-3.9,1.2-7.2,3.6-9.8c3.5-4.1,9.3-5.2,14-2.7c1.6,0.8,2.7,1.9,3.5,3.1h0.2l-0.2-3.6v-12h4.8v37.9h-4.6v-3.6h-0.2
		c-0.8,1.2-1.9,2.3-3.5,3.2C369.6,67.8,367.8,68.2,365.8,68.2L365.8,68.2z M366.6,63.8c2.3,0,4.2-0.8,5.8-2.5c1.7-1.7,2.4-4,2.4-6.8
		c0-2.9-0.8-5.1-2.4-6.8c-1.7-1.7-3.6-2.6-5.9-2.6c-2.2,0-4.2,0.8-5.8,2.6c-1.7,1.7-2.5,4-2.5,6.8c0,2.9,0.8,5.1,2.5,6.8
		C362.4,62.9,364.4,63.8,366.6,63.8L366.6,63.8z M396.4,68.2c-3.9,0-7.1-1.3-9.6-3.9c-2.5-2.6-3.7-5.9-3.7-9.8c0-4,1.2-7.2,3.7-9.9
		c2.5-2.6,5.7-3.9,9.6-3.9c5-0.2,9.5,2.8,11.4,7.4l-4.5,1.9c-1.1-3.1-4-5.1-7.2-4.9c-2.1,0-4.1,0.9-5.7,2.6c-1.7,1.8-2.4,4-2.4,6.7
		c0,2.7,0.8,5,2.5,6.7c1.7,1.8,3.5,2.6,5.7,2.6c3.6,0,6.1-1.7,7.5-4.9l4.3,1.9C406,65.4,401.4,68.4,396.4,68.2L396.4,68.2z
		 M419.5,68.2c-2.8,0-5.1-0.8-6.9-2.4c-1.8-1.6-2.9-3.9-2.8-6.3c0-2.8,1.1-5,3.3-6.6c2.4-1.7,5.2-2.5,8.1-2.4c2.9,0,5.2,0.5,7,1.6
		v-0.7c0-1.9-0.7-3.4-2-4.5s-3-1.8-4.8-1.7c-1.4,0-2.7,0.3-3.8,1c-1.2,0.7-1.9,1.6-2.4,2.7l-4.4-1.9c0.6-1.5,1.8-3,3.6-4.3
		c1.7-1.3,4.1-2,6.9-2c3.3,0,6.1,1,8.3,2.9c2.2,1.9,3.3,4.7,3.3,8.2v15.7h-4.7v-3.6H428C426.2,66.7,422.9,68.4,419.5,68.2
		L419.5,68.2L419.5,68.2L419.5,68.2z M420.3,63.8c2,0,3.8-0.7,5.5-2.2c1.7-1.5,2.5-3.3,2.5-5.3c-1.4-1.1-3.5-1.7-6.2-1.7
		c-2.4,0-4.1,0.5-5.4,1.5c-1.2,1-1.8,2.2-1.8,3.6c0,1.3,0.6,2.3,1.7,3C417.6,63.4,418.9,63.8,420.3,63.8L420.3,63.8L420.3,63.8z
		 M447.1,68.2c-5,0.2-9.5-2.8-11.3-7.4l4.3-1.8c1.4,3.2,3.7,4.9,7,4.9c1.5,0,2.7-0.4,3.7-1c0.9-0.6,1.5-1.6,1.4-2.6
		c0-1.7-1.2-2.8-3.6-3.4l-5.2-1.2c-1.7-0.5-3.3-1.3-4.7-2.4c-1.5-1.1-2.3-2.9-2.2-4.8c0-2.3,1-4.1,3.1-5.6c2.1-1.5,4.6-2.2,7.2-2.2
		c2.3,0,4.3,0.5,6.2,1.6c1.8,1,3.1,2.5,3.8,4.5l-4.2,1.7c-1-2.3-2.9-3.4-5.9-3.4c-1.4,0-2.7,0.3-3.7,0.9c-1,0.6-1.4,1.4-1.4,2.4
		c0,1.5,1.1,2.5,3.4,3l5.1,1.2c2.4,0.5,4.2,1.5,5.4,2.9s1.7,2.9,1.7,4.7c0,2.3-1,4.3-2.9,5.8C452.5,67.4,450.1,68.2,447.1,68.2
		L447.1,68.2z M471.9,67.8c-2.7,0-4.8-0.7-6.2-2.1c-1.5-1.7-2.3-3.9-2.1-6.2V45.9h-4.5v-4.5h4.5v-7.9h4.9v7.9h6.3v4.5h-6.3v13.2
		c0,2.8,1.2,4.2,3.5,4.2c0.9,0,1.7-0.2,2.2-0.4l1.7,4.1C474.7,67.6,473.4,67.8,471.9,67.8L471.9,67.8L471.9,67.8z M488.9,68.2
		c-5,0.2-9.5-2.8-11.3-7.4l4.3-1.8c1.4,3.2,3.7,4.9,7,4.9c1.5,0,2.7-0.4,3.7-1c0.9-0.6,1.5-1.6,1.4-2.6c0-1.7-1.2-2.8-3.6-3.4
		l-5.2-1.2c-1.7-0.5-3.3-1.3-4.7-2.4c-1.5-1.1-2.3-2.9-2.2-4.8c0-2.3,1-4.1,3.1-5.6c2.1-1.5,4.6-2.2,7.2-2.2c2.3,0,4.3,0.5,6.2,1.6
		c1.8,1,3.1,2.5,3.8,4.5l-4.2,1.7c-1-2.3-2.9-3.4-5.9-3.4c-1.4,0-2.7,0.3-3.7,0.9c-1,0.6-1.4,1.4-1.4,2.4c0,1.5,1.1,2.5,3.4,3
		l5.1,1.2c2.4,0.5,4.2,1.5,5.4,2.9c1.2,1.4,1.7,2.9,1.7,4.7c0,2.3-1,4.3-2.9,5.8C494.3,67.4,491.9,68.2,488.9,68.2L488.9,68.2z
		 M114.7,46.5c0-12,10-21.7,22-21.7c5.6-0.1,10.9,2.1,14.9,6l-4.2,4.1c-6.2-5.9-16.1-5.6-22,0.6c-2.8,2.9-4.3,6.8-4.2,10.9
		c0,8.7,6.8,15.8,15.5,15.8c4.1,0.2,8.1-1.4,11-4.3c1.7-1.7,2.8-4.1,3.2-7.4h-14.2v-5.9h20c0.2,1.1,0.3,2.3,0.3,3.7
		c0.2,5.1-1.7,10.1-5.1,13.9c-4,4.1-9.5,6.3-15.2,6.1C124.7,68.2,114.9,58.5,114.7,46.5L114.7,46.5z M172.9,40.5
		c7.6-0.1,13.9,5.9,14,13.5c0,0.1,0,0.3,0,0.4c0.1,7.6-6,13.9-13.6,14c-0.2,0-0.3,0-0.5,0c-7.6,0.1-13.9-6-14-13.6
		c0-0.1,0-0.3,0-0.4c-0.1-7.6,5.9-13.8,13.5-13.9C172.6,40.5,172.7,40.5,172.9,40.5z M172.9,62.9c4.2,0,7.9-3.5,7.9-8.5
		c0-5-3.7-8.5-7.9-8.5c-4.3,0-7.9,3.4-7.9,8.5C165,59.4,168.7,62.9,172.9,62.9z M203.5,40.5c7.6-0.1,13.9,6,14,13.6
		c0,0.1,0,0.2,0,0.4c0.1,7.6-6,13.9-13.6,14c-0.1,0-0.3,0-0.4,0c-7.6,0.1-13.9-5.9-14-13.5c0-0.2,0-0.3,0-0.5
		c-0.1-7.6,5.9-13.8,13.5-13.9C203.2,40.5,203.3,40.5,203.5,40.5z M203.5,62.9c4.2,0,7.9-3.5,7.9-8.5c0-5-3.6-8.5-7.9-8.5
		c-4.3,0-7.9,3.4-7.9,8.5C195.6,59.4,199.3,62.9,203.5,62.9L203.5,62.9z M241,41h5.9V66c0,10.3-6.1,14.6-13.3,14.6
		c-5.4,0-10.3-3.2-12.4-8.3l5.4-2.2c0.9,2.3,3.2,5,7,5c4.5,0,7.4-2.9,7.4-8.2v-2h-0.2c-1.9,2.1-4.6,3.3-7.4,3.2
		c-7.5-0.2-13.4-6.4-13.4-13.9c0-7.9,6.4-14,13.4-14c3.3,0,6,1.5,7.4,3.1h0.2L241,41L241,41z M234,62.5c4.1,0,7.4-3.5,7.4-8.4
		c0-4.9-3.3-8.5-7.4-8.5c-4.2,0-7.8,3.6-7.8,8.5C226.2,59,229.8,62.5,234,62.5z M251.1,67.5v-41h6.1v41H251.1z M274,62.9
		c3.1,0,5.3-1.6,6.9-3.9l4.8,3.2c-2.6,3.9-7,6.2-11.7,6.2c-7.5,0.1-13.7-5.9-13.8-13.5c0-0.2,0-0.3,0-0.5c0-8.3,6-13.9,13.2-13.9
		c7.2,0,10.8,5.7,11.9,8.8l0.6,1.6l-18.7,7.7C268.7,61.5,270.9,62.9,274,62.9L274,62.9z M273.6,45.9c-3.2,0-7.5,2.8-7.4,8.1
		l12.5-5.2C278,47.1,276,45.9,273.6,45.9L273.6,45.9z"/>
</g>
</svg>
